PathFileType	4	(X/Y/Z)	Patient4_TMGait_0pt4_01_left_37.trc.trc
DataRate	CameraRate	NumFrames	NumMarkers	Units	OrigDataRate	OrigDataStartFrame	OrigNumFrames
73.684210526316	73.684210526316	4	33	mm	73.684210526316	18	       141
Frame#	Time	Sacral			L.Shoulder			Chest			R.Shoulder			Neck			R.ASIS			L.ASIS			R.Thigh.Superior			R.Thigh.Lateral			R.Thigh.Inferior			R.Patella			L.Thigh.Superior			L.Thigh.Lateral			L.Thigh.Inferior			L.Patella			L.Shank.Superior			L.Shank.Lateral			L.Shank.Inferior			R.Shank.Superior			R.Shank.Lateral			R.Shank.Inferior			R.Heel			R.Midfoot.Superior			R.Midfoot.Lateral			R.Toe			L.Heel			L.Midfoot.Lateral			L.Midfoot.Superior			L.Toe			L.Elbow			L.Wrist			R.Elbow			R.Wrist			
		X1	Y1	Z1	X2	Y2	Z2	X3	Y3	Z3	X4	Y4	Z4	X5	Y5	Z5	X6	Y6	Z6	X7	Y7	Z7	X8	Y8	Z8	X9	Y9	Z9	X10	Y10	Z10	X11	Y11	Z11	X12	Y12	Z12	X13	Y13	Z13	X14	Y14	Z14	X15	Y15	Z15	X16	Y16	Z16	X17	Y17	Z17	X18	Y18	Z18	X19	Y19	Z19	X20	Y20	Z20	X21	Y21	Z21	X22	Y22	Z22	X23	Y23	Z23	X24	Y24	Z24	X25	Y25	Z25	X26	Y26	Z26	X27	Y27	Z27	X28	Y28	Z28	X29	Y29	Z29	X30	Y30	Z30	X31	Y31	Z31	X32	Y32	Z32	X33	Y33	Z33	

18	46.430714285714	812.245667578592	1007.420432842437	552.144491525494	966.432171169207	1437.261709459089	355.928724273598	1094.043518349469	1363.692995594899	496.211153651607	1043.102398226217	1435.415335681472	682.778041670865	978.174827403716	1495.478180640128	514.160535754590	1053.420782021745	939.874761812517	635.337510179657	1002.394327658501	966.086496603418	364.399268900294	1058.784064107039	730.727140978700	605.588808679327	966.063632219023	631.355426224446	674.167326433965	1026.361384656436	570.143424912674	590.297838703993	1012.556045906517	486.206890328588	597.564086959373	1075.131604910406	775.692304696626	383.673559739503	1020.985454607186	651.452067248283	305.328164141102	1124.845764813190	587.773925906626	360.871230863276	1151.625697419917	527.804454510279	354.048709690653	1138.069445929872	458.396547958478	341.475261127747	1077.990949007505	326.350234782664	289.381768076260	1174.297326723172	231.510260638296	336.594687396905	978.947441363347	399.570750012097	604.877580670636	901.180090649664	300.516192828252	667.498626147213	935.706251513774	203.799445378477	601.873901363969	793.612057393721	43.159910108447	568.010912274349	964.100964168255	96.376153776978	607.915449080393	875.240861668102	36.796326226926	645.190163148766	1084.010770334922	42.411786147308	637.942057840769	1103.138464119877	48.502053386770	374.179464602804	1175.639123691371	55.053590991904	293.255822263202	1243.382358743813	136.242399647331	311.809645909467	1377.932531683849	111.842814653877	284.263208714275	854.992087332767	1097.413559364833	264.049937432628	859.015735870786	837.685295940700	243.982689276175	1169.368303109006	1121.282678536676	805.680669516156	1409.953198472302	1146.280933530496	730.354104739441	
19	46.444285714286	812.381828589410	1006.674905087457	550.527969824366	965.027523832072	1436.599220466845	353.838863345408	1093.106626391981	1363.370236743929	493.858722120166	1042.375166879234	1435.046506560410	680.492532367835	977.001808508956	1494.856785892141	511.988431850631	1053.716050059957	939.426112415847	633.481257747561	1002.406446609888	965.160546303071	362.478252024436	1057.776137151216	729.875088115861	604.237304728968	964.236056856465	631.103001580601	673.101141130016	1023.907361445166	569.357025843987	589.374007494757	1009.491724941417	485.482528483683	596.660612995967	1075.679147196201	774.920113832205	381.544153190739	1020.001382766101	649.279148042418	305.748081260635	1124.791156163466	586.419999843880	359.930978474599	1151.057865779236	525.634965258440	354.099488016221	1136.547213880598	455.604349325151	342.649097266491	1074.119760221972	324.362338155319	291.695908220986	1168.661966524471	228.282320023364	339.412258112691	975.334514707642	399.048988806578	604.215266880751	897.083880639261	300.550919472072	667.160128052319	930.882543376077	203.521263233965	601.631782783642	788.131897945223	43.142485861531	568.061533357991	958.601896961950	96.328311201159	607.910161797516	869.757731814557	36.753150900171	645.246781661653	1078.507042866339	42.392445085171	637.947672319704	1094.313123953045	47.267134482233	378.186357549074	1166.325147169209	52.462215190882	296.781330827380	1235.800611522647	131.946877509349	315.039893970587	1369.477654110196	104.776962221490	286.540143512575	854.202831787071	1096.726791978805	261.539713897104	859.794296367458	837.092858767238	240.636442839175	1169.412228868540	1120.837930205557	802.428569616777	1409.657225556484	1147.716888305017	727.004726704742	
20	46.457857142857	812.780736391201	1005.754414882294	548.616515266512	963.638586981399	1435.778924971984	351.476972732159	1092.163784076354	1363.063092534158	491.333529964658	1041.444150360002	1434.651439632558	678.013278963478	975.714835561911	1494.132051798405	509.563885913414	1054.233708838431	938.912771813355	631.607257967118	1002.893039942955	964.047171393273	360.520330425432	1056.975419323579	728.935434996104	602.947562968801	962.466234446685	630.824564669282	672.000382774234	1021.545896803373	568.505726126641	588.479391357558	1006.471960763383	484.702944768778	595.744412975709	1076.685999729327	773.818447231398	379.449343390949	1019.336802227263	646.932371630488	306.166047037824	1124.921544150462	584.779200748813	359.142082559164	1150.483506476611	522.953858522280	354.309750928457	1134.796936074451	452.259652642871	343.917509763974	1069.482828549404	322.089916745931	294.063578110667	1161.824930868355	224.382993097997	342.352946162220	971.782270723887	398.493374382807	603.533905458538	893.014275805534	300.572814023142	666.795553058151	926.072980441609	203.221981065370	601.386845388777	782.660775795371	43.101700223293	568.112443653258	953.100215470853	96.266513228987	607.894771314869	864.281119283787	36.691029071878	645.307024004543	1073.004437708342	42.354143016023	637.964277789729	1083.481379914043	45.758559449115	382.115833901247	1155.074883162244	49.497012496254	300.267468970766	1226.601354665755	126.858112140407	318.506695482023	1359.313753085542	96.376864042015	289.064285116301	853.611278397821	1095.809282521623	258.746495797673	861.393557269815	836.288696739044	236.950519254386	1168.943765028840	1120.247243613482	799.230711194129	1408.978388913499	1148.288640997683	723.787605879012	
21	46.471428571429	813.412626859025	1004.692180862441	546.413251808495	962.324752991253	1434.812767166246	348.836734473446	1091.250107329784	1362.768246920368	488.641690118636	1040.344674080554	1434.242772052254	675.340573569524	974.366637752965	1493.322375656425	506.880122757450	1054.943964820235	938.335381668119	629.709724322220	1003.817145393508	962.778890200618	358.535720449504	1056.410505948616	727.919340742886	601.694428600069	960.812005769058	630.511447535171	670.828472569463	1019.335697491834	567.595211490681	587.558292118837	1003.563129988180	483.857199335900	594.761703807175	1078.035145473277	772.371925445906	377.474323916981	1018.940637079811	644.508013751920	306.510814694927	1125.110928478032	582.889135521019	358.553864851359	1149.776600215110	519.883639357503	354.701530860800	1132.823756022580	448.544960829063	345.199628872884	1064.364619268649	319.617628902765	296.339819593984	1154.248459625231	220.081958173074	345.269413657627	968.338847374935	397.896175786538	602.791546557029	889.014544150607	300.592020269798	666.381403436603	921.297895220755	202.902010764824	601.119951327559	777.198489360307	43.046709852079	568.165331956851	947.600204556470	96.197469669666	607.870019247552	858.813197932391	36.610984604696	645.365989662967	1067.506454655102	42.291126444116	637.992407915492	1071.440127563956	44.113533963708	385.767104629092	1142.728913656329	46.405527325313	303.557203590361	1216.454554636572	121.353953208464	322.079864793672	1348.179950499677	87.271494483146	291.803598666140	853.274505213959	1094.665433018606	255.694071218096	863.759931509503	835.283599633183	232.980057369735	1167.966582026817	1119.511306813514	796.100938241322	1407.938473875802	1147.951782643314	720.715558029366	
